<svg width="1440" height="1024" viewBox="0 0 1440 1024" fill="none" xmlns="http://www.w3.org/2000/svg">
<g clip-path="url(#clip0_843_276)">
<rect width="1440" height="1024" fill="#0084CA"/>
<path d="M1142.98 338.657C1142.98 338.657 1146.5 329.288 1165.23 309.379C1173.43 317.577 1187.49 338.657 1187.49 338.657C1187.49 338.657 1171.09 360.908 1166.41 376.133C1161.72 365.593 1142.98 338.657 1142.98 338.657ZM1086.77 295.326C1091.45 284.786 1107.85 266.048 1107.85 266.048C1107.85 266.048 1127.76 275.417 1138.3 285.957C1132.44 294.155 1126.59 296.497 1114.88 314.064C1104.34 307.037 1099.65 303.524 1086.77 295.326ZM1192.17 285.957C1199.2 276.588 1222.62 264.877 1222.62 264.877C1222.62 264.877 1236.67 283.615 1244.87 294.155C1236.67 297.668 1226.13 305.866 1215.59 314.064C1209.74 308.208 1200.37 294.155 1192.17 285.957ZM1134.79 236.771C1142.98 230.915 1158.21 215.691 1164.06 213.348C1165.23 212.177 1182.8 226.231 1193.34 237.942C1185.14 243.797 1164.06 259.022 1164.06 259.022C1164.06 259.022 1154.69 249.653 1134.79 236.771ZM1165.23 164.162C1106.68 137.226 1064.52 124.344 997.766 123.173C825.613 122.002 664 257.851 664 442.886C664 448.741 687.422 496.757 702.647 522.521V425.319C702.647 263.706 870.115 159.477 1000.11 159.477C1043.44 159.477 1086.77 171.189 1127.76 188.755C1118.39 198.124 1105.51 213.348 1099.65 214.52C1098.48 214.52 1056.32 194.611 1000.11 194.611C886.511 194.611 738.951 288.299 738.951 427.661V599.814C738.951 605.67 764.715 647.83 777.598 671.252V425.319C777.598 307.037 908.762 232.086 1000.11 232.086C1030.56 232.086 1037.58 233.257 1073.89 243.797C1066.86 253.166 1057.49 264.877 1050.47 274.246C1035.24 269.562 1008.31 267.219 1002.45 267.219C927.499 267.219 816.244 329.288 816.244 430.004V746.203C816.244 752.058 842.009 794.218 854.891 817.641V427.661C854.891 350.368 948.579 304.695 1003.62 304.695C1009.48 304.695 1023.53 304.695 1032.9 309.379C1003.62 377.304 1004.79 396.041 1003.62 427.661V1111.59C1015.33 1137.35 1028.21 1161.95 1042.27 1187.71V422.977C1045.78 387.844 1050.47 352.71 1071.55 322.262C1082.09 326.946 1099.65 340.999 1099.65 340.999C1099.65 340.999 1083.26 365.593 1078.57 426.49V1257.98C1090.28 1283.74 1105.51 1310.68 1117.22 1337.61V425.319C1119.56 408.924 1123.07 387.844 1130.1 376.133C1145.33 397.213 1148.84 421.806 1152.35 440.544V1411.39C1157.04 1424.27 1172.26 1447.7 1172.26 1447.7C1172.26 1447.7 1186.31 1421.93 1188.66 1411.39V448.741C1188.66 422.977 1199.2 399.555 1210.91 374.961C1223.79 393.699 1223.79 422.977 1226.13 442.886L1229.65 1338.78C1246.04 1313.02 1257.75 1287.26 1268.29 1262.66L1264.78 425.319C1260.09 380.817 1254.24 365.593 1241.36 343.341C1241.36 342.17 1261.27 328.117 1270.63 323.433C1294.06 365.593 1298.74 407.752 1304.6 451.084V1187.71C1318.65 1161.95 1331.53 1136.18 1339.73 1113.93L1338.56 435.859C1338.56 371.448 1309.28 323.433 1305.77 309.379C1304.6 305.866 1309.28 305.866 1309.28 305.866C1318.65 303.524 1332.7 303.524 1339.73 303.524C1373.69 303.524 1477.92 333.973 1488.46 438.201V815.298C1503.68 789.534 1516.57 763.77 1524.76 739.176V425.319C1508.37 322.262 1420.54 267.219 1337.39 267.219C1331.53 267.219 1294.06 269.562 1285.86 274.246C1283.52 275.417 1276.49 256.679 1262.44 242.626C1290.54 233.257 1303.43 233.257 1337.39 230.915C1433.42 223.888 1561.07 319.919 1562.24 444.057V665.396C1577.46 641.974 1597.37 604.499 1597.37 598.643V418.292C1588 289.47 1452.16 189.926 1331.53 194.611C1282.35 195.782 1253.07 203.98 1231.99 212.177C1228.47 213.348 1212.08 194.611 1202.71 188.755C1250.73 162.991 1290.54 157.135 1335.05 157.135C1465.04 157.135 1609.08 241.455 1626.65 420.635C1634.85 501.441 1632.51 507.297 1633.68 515.494C1646.56 487.388 1665.3 459.281 1665.3 435.859C1665.3 253.166 1502.51 122.002 1338.56 122.002C1261.27 122.002 1215.59 139.569 1165.23 164.162Z" fill="url(#paint0_linear_843_276)"/>
<mask id="mask0_843_276" style="mask-type:luminance" maskUnits="userSpaceOnUse" x="664" y="122" width="1002" height="1326">
<path d="M1142.98 338.655C1142.98 338.655 1146.5 329.286 1165.23 309.377C1173.43 317.575 1187.49 338.655 1187.49 338.655C1187.49 338.655 1171.09 360.906 1166.41 376.131C1161.72 365.591 1142.98 338.655 1142.98 338.655ZM1086.77 295.324C1091.45 284.784 1107.85 266.046 1107.85 266.046C1107.85 266.046 1127.76 275.415 1138.3 285.955C1132.44 294.153 1126.59 296.495 1114.88 314.062C1104.34 307.035 1099.65 303.522 1086.77 295.324ZM1192.17 285.955C1199.2 276.586 1222.62 264.875 1222.62 264.875C1222.62 264.875 1236.67 283.613 1244.87 294.153C1236.67 297.666 1226.13 305.864 1215.59 314.062C1209.74 308.206 1200.37 294.153 1192.17 285.955ZM1134.79 236.769C1142.98 230.913 1158.21 215.689 1164.06 213.346C1165.23 212.175 1182.8 226.229 1193.34 237.94C1185.14 243.795 1164.06 259.02 1164.06 259.02C1164.06 259.02 1154.69 249.651 1134.79 236.769ZM1165.23 164.16C1106.68 137.224 1064.52 124.342 997.766 123.171C825.613 122 664 257.849 664 442.884C664 448.739 687.422 496.755 702.647 522.519V425.317C702.647 263.704 870.115 159.475 1000.11 159.475C1043.44 159.475 1086.77 171.187 1127.76 188.753C1118.39 198.122 1105.51 213.346 1099.65 214.518C1098.48 214.518 1056.32 194.609 1000.11 194.609C886.511 194.609 738.951 288.297 738.951 427.659V599.812C738.951 605.668 764.715 647.828 777.598 671.25V425.317C777.598 307.035 908.762 232.084 1000.11 232.084C1030.56 232.084 1037.58 233.255 1073.89 243.795C1066.86 253.164 1057.49 264.875 1050.47 274.244C1035.24 269.56 1008.31 267.217 1002.45 267.217C927.499 267.217 816.244 329.286 816.244 430.002V746.201C816.244 752.056 842.009 794.216 854.891 817.639V427.659C854.891 350.366 948.579 304.693 1003.62 304.693C1009.48 304.693 1023.53 304.693 1032.9 309.377C1003.62 377.302 1004.79 396.039 1003.62 427.659V1111.59C1015.33 1137.35 1028.21 1161.94 1042.27 1187.71V422.975C1045.78 387.842 1050.47 352.708 1071.55 322.26C1082.09 326.944 1099.65 340.997 1099.65 340.997C1099.65 340.997 1083.26 365.591 1078.57 426.488V1257.98C1090.28 1283.74 1105.51 1310.68 1117.22 1337.61V425.317C1119.56 408.922 1123.07 387.842 1130.1 376.131C1145.33 397.211 1148.84 421.804 1152.35 440.542V1411.39C1157.04 1424.27 1172.26 1447.7 1172.26 1447.7C1172.26 1447.7 1186.31 1421.93 1188.66 1411.39V448.739C1188.66 422.975 1199.2 399.553 1210.91 374.959C1223.79 393.697 1223.79 422.975 1226.13 442.884L1229.65 1338.78C1246.04 1313.02 1257.75 1287.25 1268.29 1262.66L1264.78 425.317C1260.09 380.815 1254.24 365.591 1241.36 343.34C1241.36 342.168 1261.27 328.115 1270.63 323.431C1294.06 365.591 1298.74 407.751 1304.6 451.082V1187.71C1318.65 1161.94 1331.53 1136.18 1339.73 1113.93L1338.56 435.857C1338.56 371.446 1309.28 323.431 1305.77 309.377C1304.6 305.864 1309.28 305.864 1309.28 305.864C1318.65 303.522 1332.7 303.522 1339.73 303.522C1373.69 303.522 1477.92 333.971 1488.46 438.199V815.296C1503.68 789.532 1516.57 763.768 1524.76 739.174V425.317C1508.37 322.26 1420.54 267.217 1337.39 267.217C1331.53 267.217 1294.06 269.56 1285.86 274.244C1283.52 275.415 1276.49 256.678 1262.44 242.624C1290.54 233.255 1303.43 233.255 1337.39 230.913C1433.42 223.886 1561.07 319.917 1562.24 444.055V665.394C1577.46 641.972 1597.37 604.497 1597.37 598.641V418.29C1588 289.469 1452.16 189.924 1331.53 194.609C1282.35 195.78 1253.07 203.978 1231.99 212.175C1228.47 213.346 1212.08 194.609 1202.71 188.753C1250.73 162.989 1290.54 157.133 1335.05 157.133C1465.04 157.133 1609.08 241.453 1626.65 420.633C1634.85 501.439 1632.51 507.295 1633.68 515.493C1646.56 487.386 1665.3 459.279 1665.3 435.857C1665.3 253.164 1502.51 122 1338.56 122C1261.27 122 1215.59 139.567 1165.23 164.16Z" fill="white"/>
</mask>
<g mask="url(#mask0_843_276)">
<path d="M1665.3 122H664V1447.7H1665.3V122Z" fill="url(#paint1_linear_843_276)"/>
</g>
</g>
<defs>
<linearGradient id="paint0_linear_843_276" x1="1544" y1="513.002" x2="737.541" y2="660.727" gradientUnits="userSpaceOnUse">
<stop stop-color="white"/>
<stop offset="0.742554" stop-color="white" stop-opacity="0.144221"/>
<stop offset="1" stop-color="white" stop-opacity="0"/>
</linearGradient>
<linearGradient id="paint1_linear_843_276" x1="1544" y1="513" x2="737.541" y2="660.725" gradientUnits="userSpaceOnUse">
<stop stop-color="white"/>
<stop offset="0.742554" stop-color="white" stop-opacity="0.144221"/>
<stop offset="1" stop-color="white" stop-opacity="0"/>
</linearGradient>
<clipPath id="clip0_843_276">
<rect width="1440" height="1024" fill="white"/>
</clipPath>
</defs>
</svg>
