<svg width="532" height="620" viewBox="0 0 532 620" fill="none" xmlns="http://www.w3.org/2000/svg">
<path fill-rule="evenodd" clip-rule="evenodd" d="M324.675 0.894675C307.557 2.88468 290.333 7.80767 274.5 15.2387L265.5 19.4617L256.822 15.7087C244.627 10.4347 231.71 6.24367 219.749 3.67867C205.72 0.670672 170.271 0.367678 156.654 3.13868C86.184 17.4797 33.466 76.4417 31.746 142.839L31.5 152.339L39.135 167.839C50.765 191.446 49.931 192.111 49.968 159.199C50.002 129.128 50.792 121.672 55.37 108.229C69.723 66.0827 110.963 32.2017 161.829 20.7677C185.477 15.4517 210.725 17.7967 238.357 27.8747L247.214 31.1047L241.357 36.9517L235.5 42.7987L226.5 39.9107C182.106 25.6667 133.787 37.8077 98.32 72.1167C83.734 86.2267 73.692 102.64 68.817 120.339C66.712 127.979 66.598 130.502 66.281 176.339L65.95 224.339L70.009 231.589L74.068 238.839H79.034H84L84.008 191.089C84.013 164.827 84.457 139.498 84.994 134.805C88.961 100.194 116.1 71.0797 157.144 57.4037C175.766 51.1987 196.74 50.2657 213 54.9177C217.125 56.0987 220.66 57.2107 220.856 57.3907C221.051 57.5697 219.059 60.5567 216.429 64.0277C213.799 67.4987 211.565 70.4627 211.466 70.6127C211.366 70.7637 207.058 70.1497 201.892 69.2477C178.99 65.2487 153.323 72.0837 132.083 87.8397C118.502 97.9137 109.401 109.71 104.179 124.004L101.5 131.339L101.202 185.089L100.903 238.839H109.952H119L119.017 190.089C119.036 137.531 119.404 132.896 124.324 123.187C131.731 108.57 148.597 95.7707 168.794 89.4427C178.649 86.3547 191.735 85.1237 197.638 86.7297L201.775 87.8557L197.788 98.0107C195.596 103.597 192.635 112.481 191.21 117.753L188.618 127.339L188.235 183.089L187.852 238.839H196.926H206V190.873C206 152.871 206.324 140.564 207.562 131.623C209.258 119.37 213.514 105.232 217.607 98.2467C220.169 93.8747 220.213 93.8507 222.845 95.4077C224.305 96.2717 227.046 98.2407 228.935 99.7837L232.37 102.59L230.11 107.964C228.867 110.92 226.909 117.164 225.759 121.839C223.795 129.816 223.642 133.68 223.271 184.589L222.876 238.839H231.887H240.899L241.268 187.589C241.589 142.928 241.86 135.486 243.373 129.705C244.329 126.056 245.728 122.231 246.484 121.205C247.747 119.488 248.104 119.867 250.947 125.927C256.637 138.058 256.964 141.669 256.983 192.628L257 238.917L265.75 238.628L274.5 238.339L275 189.339L275.5 140.339L278.593 132.327C280.294 127.921 282.4 122.971 283.272 121.327L284.857 118.339L286.548 122.339C290.575 131.867 291.226 140.492 291.698 190.589L292.152 238.839H301.076H310L309.948 205.589C309.843 138.191 308.344 120.664 301.568 107.605C298.566 101.817 298.685 101.533 306.144 96.7467C312.151 92.8917 312.382 93.0457 316.782 103.839C320.768 113.616 323.433 124.275 325.954 140.522C327.777 152.267 328 158.349 328 196.272V238.839H335.941C340.309 238.839 344.063 238.502 344.283 238.089C344.504 237.676 344.374 212.589 343.993 182.339L343.301 127.339L340.675 118.107C339.23 113.029 335.985 103.869 333.464 97.7507C330.942 91.6317 329.169 86.3367 329.524 85.9827C329.878 85.6287 335.643 85.3637 342.334 85.3927C352.954 85.4407 355.517 85.7997 362.5 88.2197C388.208 97.1287 403.569 111.706 411.102 134.339C413.392 141.22 413.438 142.169 413.776 190.089L414.121 238.839H422.602H431.083L430.792 186.089L430.5 133.339L427.25 124.896C422.313 112.075 416.634 103.298 407.088 93.7367C393.788 80.4167 376.963 71.7467 358.702 68.8047C351.189 67.5947 333.211 67.9077 323.465 69.4187L319.43 70.0447L314.765 63.0287C309.45 55.0357 309.099 55.6347 320.5 53.2337C332.343 50.7397 354.066 50.2617 364 52.2767C384.337 56.4007 404.097 67.7977 420.283 84.7387C432.291 97.3077 438.436 107.391 444.273 124.102L447.5 133.339L448 185.839L448.5 238.339H453H457.5L461.754 230.339L466.009 222.339L465.649 175.839C465.257 125.192 465.078 123.348 459.122 108.495C444.565 72.1937 406.346 42.4827 364.901 35.2497C347.395 32.1947 315.902 34.5357 301.371 39.9727C296.02 41.9747 296 41.9747 293.253 39.9967C291.739 38.9057 288.983 36.4337 287.129 34.5037L283.759 30.9947L288.892 28.3937C303.61 20.9357 322.982 16.8487 343.651 16.8427C397.17 16.8267 444.297 44.7527 466.48 89.6277C471.591 99.9677 476.263 114.172 478.403 125.875C480.256 136.015 483 165.76 483 175.718C483 179.634 483.375 182.839 483.834 182.839C484.807 182.839 496.223 159.186 498.041 153.402C499.609 148.414 498.8 130.466 496.506 119.339C490.858 91.9387 477.435 67.3097 457 46.8507C443.872 33.7077 431.207 24.6397 414.5 16.4217C396.495 7.56567 382.928 3.41467 363.678 0.871672C354.805 -0.300328 334.855 -0.288325 324.675 0.894675ZM272.499 49.1307L278.323 54.4227L271.958 58.9787L265.593 63.5347L259.547 59.0977C256.221 56.6567 253.372 54.3177 253.217 53.8997C252.845 52.9017 263.867 43.8387 265.453 43.8387C266.126 43.8387 269.297 46.2197 272.499 49.1307ZM297.022 73.3687C299.21 76.3307 301 79.1267 301 79.5837C301 80.3597 290.948 87.5637 289.123 88.0967C288.666 88.2297 286.162 85.7327 283.558 82.5477C279.497 77.5807 279.011 76.5307 280.139 75.1707C282.231 72.6507 291.252 66.8767 292.191 67.4567C292.66 67.7467 294.834 70.4077 297.022 73.3687ZM242.79 69.7837C244.83 70.8537 247.822 72.8137 249.437 74.1387L252.374 76.5487L246.981 82.6737C241.615 88.7707 241.578 88.7917 239.045 87.1497C228.695 80.4407 228.989 80.7287 230.182 78.4737C231.454 76.0687 238.015 67.8387 238.66 67.8387C238.891 67.8387 240.749 68.7137 242.79 69.7837ZM268.677 92.2697C270.23 94.1567 272.26 96.9927 273.189 98.5707C274.829 101.358 274.798 101.566 272.09 105.889C270.557 108.337 268.414 111.818 267.327 113.625L265.352 116.911L260.676 109.258C258.104 105.049 256 101.265 256 100.848C256 99.6997 264.226 88.8387 265.095 88.8387C265.513 88.8387 267.125 90.3827 268.677 92.2697ZM183.24 268.949C177.343 271.868 174.692 275.944 174.192 282.863C173.478 292.737 177.699 297.419 191.289 301.826C199.008 304.33 201.903 307.284 200.042 310.76C199.437 311.891 197.809 313.1 196.425 313.447C192.315 314.479 183.801 313.323 179.301 311.123C176.992 309.994 174.854 309.318 174.551 309.621C174.248 309.924 174 312.82 174 316.057C174 321.898 174.028 321.953 177.75 323.584C183.646 326.167 200.294 325.968 205.5 323.252C212.857 319.414 216.254 311.21 213.982 302.772C212.357 296.738 208.33 293.441 198.722 290.278C189.155 287.129 188 286.382 188 283.339C188 280.484 189.57 279.192 194.061 278.353C197.294 277.749 202.973 279.131 210.25 282.293C211.815 282.973 212 282.367 212 276.555V270.056L207.98 268.448C201.868 266.002 188.652 266.27 183.24 268.949ZM292.24 268.89C286.321 271.902 283.691 275.964 283.192 282.863C282.476 292.754 285.823 296.594 299.331 301.381C308.067 304.477 310.927 307.238 309.042 310.76C308.437 311.891 306.79 313.105 305.382 313.458C301.428 314.45 292.699 313.223 288.18 311.04C285.937 309.956 283.854 309.318 283.551 309.621C283.248 309.924 283 312.82 283 316.057C283 321.896 283.029 321.954 286.75 323.594C292.625 326.184 309.274 325.978 314.5 323.252C322.378 319.141 325.783 309.795 322.516 301.243C320.45 295.831 316.502 293.014 306.5 289.813C297.963 287.081 296.815 286.231 297.199 282.925C297.435 280.897 298.392 280.031 301.632 278.91C305.397 277.609 306.286 277.661 311.632 279.499C314.859 280.609 318.288 281.862 319.25 282.285C320.815 282.972 321 282.372 321 276.607C321 270.562 320.829 270.077 318.25 268.835C316.738 268.106 311.225 267.332 306 267.116C297.752 266.775 295.939 267.008 292.24 268.89ZM368.653 269.276C355.199 275.867 348.988 290.777 353.571 305.478C354.982 310.003 356.666 312.613 360.959 316.929C367.964 323.971 374.153 326.311 383.922 325.612C394.032 324.889 395 324.076 395 316.304C395 311.342 394.665 309.839 393.559 309.839C392.766 309.839 391.862 310.253 391.55 310.758C391.238 311.264 388.8 312.145 386.134 312.717C371.137 315.933 360.284 301.614 367.25 287.801C371.305 279.759 380.924 276.807 389.859 280.861C392.257 281.949 394.394 282.839 394.609 282.839C394.824 282.839 395 279.733 395 275.937C395 269.094 394.973 269.025 391.851 267.937C390.119 267.333 385.281 266.853 381.101 266.87C375.172 266.895 372.434 267.424 368.653 269.276ZM0 296.339V324.839H6.5H13V314.839C13 309.339 13.338 304.872 13.75 304.912C14.162 304.951 18.325 309.435 23 314.874L31.5 324.764L39.25 324.802C43.512 324.822 47 324.476 47 324.031C47 323.587 41.644 317.212 35.097 309.865L23.194 296.506L35.097 282.808C41.644 275.275 47 268.825 47 268.475C47 268.125 43.466 267.839 39.147 267.839H31.294L22.897 278.325C18.279 284.092 14.162 288.817 13.75 288.825C13.338 288.833 13 284.114 13 278.339V267.839H6.5H0V296.339ZM71.487 270.778C72 273.117 69.994 278.845 61.656 298.844C54.244 316.62 51.551 324.113 52.451 324.459C53.151 324.727 56.363 324.81 59.588 324.643L65.452 324.339L67.108 319.839L68.763 315.339L78.79 315.055L88.817 314.771L90.489 319.805L92.161 324.839H99.08C103.333 324.839 106 324.426 106 323.768C106 323.179 100.996 310.354 94.881 295.268L83.762 267.839H77.302H70.841L71.487 270.778ZM111 268.717C111 269.199 111.668 270.148 112.484 270.825C113.713 271.845 114.013 276.541 114.234 298.198L114.5 324.339L120.726 324.636L126.951 324.933L127.226 308.327L127.5 291.722L139.389 308.328L151.277 324.934L156.389 324.636L161.5 324.339L161.766 296.089L162.031 267.839H155.54H149.05L148.775 283.762L148.5 299.684L137.161 283.762L125.821 267.839H118.411C114.335 267.839 111 268.234 111 268.717ZM240.342 271.089C240.796 273.707 238.899 279.104 230.585 298.839C224.908 312.314 220.587 323.7 220.983 324.141C221.379 324.581 224.571 324.806 228.077 324.641L234.451 324.339L236.107 319.839L237.763 315.339L247.672 315.056L257.581 314.774L259.391 319.806L261.201 324.839H268.1C272.389 324.839 275 324.429 275 323.755C275 323.159 269.978 310.334 263.84 295.255L252.679 267.839H246.228H239.777L240.342 271.089ZM407.234 296.089L407.5 324.339L414.25 324.635L421 324.93V296.385V267.839H413.984H406.969L407.234 296.089ZM431 273.319V278.839H439.5H448V301.839V324.839H455H462V301.839V278.839H470.563H479.127L476.313 273.589L473.5 268.339L452.25 268.069L431 267.799V273.319ZM483.02 271.879C484.154 274.101 488.438 281.976 492.541 289.38L500 302.841V313.84V324.839H507H514V313.335V301.831L523 286.055C527.95 277.378 532 269.73 532 269.059C532 268.214 529.826 267.839 524.933 267.839H517.865L512.5 279.089L507.136 290.339L501.905 279.089L496.674 267.839H488.817H480.959L483.02 271.879ZM250.399 294.427C251.714 298.228 253.11 302.127 253.502 303.089C254.134 304.642 253.528 304.839 248.107 304.839C244.748 304.839 242 304.528 242 304.149C242 302.898 247.386 286.892 247.701 287.206C247.87 287.376 249.084 290.625 250.399 294.427ZM82.377 296.759C83.82 300.841 85 304.328 85 304.509C85 304.691 82.3 304.839 79 304.839C75.7 304.839 73 304.503 73 304.092C73 301.736 78.351 287.803 78.988 288.501C79.409 288.962 80.934 292.678 82.377 296.759ZM178.007 350.432C170.726 353.59 166.998 359.047 167.004 366.539C167.011 375.226 171.457 379.817 183.872 383.958C189.87 385.959 194 388.719 194 390.728C194 391.217 193.172 392.641 192.159 393.891C190.601 395.815 189.392 396.156 184.293 396.108C180.448 396.072 176.545 395.289 173.507 393.945C170.888 392.787 168.353 391.839 167.873 391.839C167.393 391.839 167 394.747 167 398.3V404.762L172.182 406.3C179.484 408.469 192.417 408.287 197.579 405.943C204.88 402.627 208.695 395.108 207.366 386.651C206.383 380.394 201.372 375.752 192.5 372.878C188.65 371.631 184.488 369.977 183.25 369.202C180.448 367.447 180.27 363.3 182.934 361.874C186.171 360.142 194.72 360.656 199 362.839C201.156 363.939 203.388 364.839 203.96 364.839C204.573 364.839 205 362.184 205 358.378V351.916L199.818 350.378C193.27 348.433 182.555 348.46 178.007 350.432ZM226.288 351.336C219.309 354.876 217 358.727 217 366.825C217 372.719 217.213 373.285 220.75 376.79C223.157 379.175 227.186 381.527 232 383.357C236.125 384.925 240.288 386.869 241.25 387.678C243.719 389.753 243.462 393.518 240.75 394.99C237.399 396.809 228.774 396.275 223.445 393.917C220.86 392.774 218.353 391.839 217.873 391.839C217.393 391.839 217 394.751 217 398.311V404.783L222.652 406.426C230.378 408.672 244.247 408.047 249.06 405.236C254.553 402.028 257 397.529 257 390.641C257 380.468 253.325 376.185 241.59 372.684C237.69 371.521 233.712 369.885 232.75 369.049C230.425 367.029 230.524 363.164 232.934 361.874C236.034 360.215 244.135 360.717 248.859 362.861C251.257 363.949 253.619 364.839 254.109 364.839C254.599 364.839 255 362.151 255 358.865C255 353.141 254.863 352.819 251.75 351.182C249.682 350.095 245.41 349.332 240 349.084C232.358 348.732 230.974 348.96 226.288 351.336ZM281.5 350.284C275.753 352.402 269.504 359.402 267.582 365.876C265.56 372.682 265.553 384.971 267.566 391.75C269.506 398.282 275.712 404.845 281.616 406.609C286.726 408.136 297.185 408.192 302.5 406.721C308.653 405.017 315.406 397.691 317.517 390.428C320.17 381.304 319.27 368.703 315.43 361.195C311.039 352.609 305.649 349.55 294.166 349.129C288.296 348.913 284.209 349.286 281.5 350.284ZM71 378.339V406.839H77.5H84L84.002 390.589L84.004 374.339L90.883 384.668C94.667 390.349 98.059 395.074 98.42 395.168C98.781 395.262 102.435 390.197 106.538 383.913L114 372.488V389.663V406.839H120.516H127.031L126.766 378.589L126.5 350.339L121.304 350.039L116.107 349.738L107.924 362.039C103.423 368.804 99.425 374.691 99.038 375.121C98.652 375.552 94.577 370.039 89.983 362.871L81.63 349.839H76.315H71V378.339ZM141 378.293V406.839H148.016H155.031L154.766 378.589L154.5 350.339L147.75 350.043L141 349.748V378.293ZM330.182 372.542C330.486 394.307 330.604 395.507 332.8 399.039C334.066 401.073 336.766 403.773 338.8 405.039C342.052 407.061 343.779 407.339 353.07 407.339C362.926 407.339 363.92 407.153 367.8 404.588C370.089 403.074 372.981 399.926 374.23 397.588C376.355 393.61 376.52 391.954 376.82 371.589L377.14 349.839H370.07H363V368.69C363 380.176 362.556 388.813 361.865 390.797C359.818 396.668 350.581 398.344 346.301 393.622C344.727 391.885 344.437 389.034 344 370.987L343.5 350.339L336.682 350.042L329.864 349.745L330.182 372.542ZM390.75 350.41C390.337 350.83 390 363.697 390 379.006V406.839H397H404V396.779V386.718L407.632 387.029C411.089 387.324 411.533 387.809 416.846 397.089L422.428 406.839H430.214C434.496 406.839 438 406.64 438 406.398C438 406.155 434.872 401.117 431.048 395.202L424.097 384.447L427.514 381.129C435.537 373.337 434.355 358.328 425.274 352.688C421.838 350.554 420.157 350.313 406.5 349.997C398.25 349.805 391.163 349.991 390.75 350.41ZM447.667 350.506C447.3 350.872 447 363.697 447 379.006V406.839H454H461V378.339V349.839H454.667C451.183 349.839 448.033 350.139 447.667 350.506ZM298.783 362.4C306.097 367.523 306.869 386.758 300.023 393.317C296.737 396.465 290.914 397.201 286.783 394.991C278.712 390.671 277.645 369.681 285.175 363.345C288.682 360.394 295.267 359.937 298.783 362.4ZM417.634 363.354C418.385 364.381 419 366.624 419 368.339C419 373.526 417.044 375.136 410.134 375.636L404 376.079V368.339V360.599L410.134 361.042C414.616 361.366 416.637 361.989 417.634 363.354ZM188.053 447.589L188.106 462.339L197 479.839L205.894 497.339L205.947 465.089L206 432.839H197H188L188.053 447.589ZM223.017 481.589L223.035 530.339L232.017 548.807L241 567.276V500.057V432.839H232H223L223.017 481.589ZM257 517.488V602.136L261.649 610.664L266.297 619.192L270.099 611.765L273.901 604.339L273.951 518.589L274 432.839H265.5H257V517.488ZM292.348 443.495C292.707 449.355 293.014 479.618 293.031 510.745L293.062 567.339L295.591 563.339C296.981 561.139 300.905 553.714 304.309 546.839L310.5 534.339L310.777 483.589L311.053 432.839H301.375H291.696L292.348 443.495ZM328.018 465.089L328.036 497.339L331.114 491.839C332.807 488.814 336.624 481.067 339.596 474.623L345 462.907V447.873V432.839H336.5H328L328.018 465.089Z" fill="white"/>
</svg>
